<svg width="170" height="170" viewBox="0 0 170 170" fill="none" xmlns="http://www.w3.org/2000/svg">
<path d="M170 85C170 38.165 131.835 0 85 0C38.165 0 0 38.165 0 85C0 109.65 10.625 131.835 27.455 147.39C27.455 147.475 27.455 147.475 27.37 147.56C28.22 148.41 29.24 149.09 30.09 149.855C30.6 150.28 31.025 150.705 31.535 151.045C33.065 152.32 34.765 153.51 36.38 154.7C36.975 155.125 37.485 155.465 38.08 155.89C39.695 156.995 41.395 158.015 43.18 158.95C43.775 159.29 44.455 159.715 45.05 160.055C46.75 160.99 48.535 161.84 50.405 162.605C51.085 162.945 51.765 163.285 52.445 163.54C54.315 164.305 56.185 164.985 58.055 165.58C58.735 165.835 59.415 166.09 60.095 166.26C62.135 166.855 64.175 167.365 66.215 167.875C66.81 168.045 67.405 168.215 68.085 168.3C70.465 168.81 72.845 169.15 75.31 169.405C75.65 169.405 75.99 169.49 76.33 169.575C79.22 169.83 82.11 170 85 170C87.89 170 90.78 169.83 93.585 169.575C93.925 169.575 94.265 169.49 94.605 169.405C97.07 169.15 99.45 168.81 101.83 168.3C102.425 168.215 103.02 167.96 103.7 167.875C105.74 167.365 107.865 166.94 109.82 166.26C110.5 166.005 111.18 165.75 111.86 165.58C113.73 164.9 115.685 164.305 117.47 163.54C118.15 163.285 118.83 162.945 119.51 162.605C121.295 161.84 123.08 160.99 124.865 160.055C125.545 159.715 126.14 159.29 126.735 158.95C128.435 157.93 130.135 156.995 131.835 155.89C132.43 155.55 132.94 155.125 133.535 154.7C135.235 153.51 136.85 152.32 138.38 151.045C138.89 150.62 139.315 150.195 139.825 149.855C140.76 149.09 141.695 148.325 142.545 147.56C142.545 147.475 142.545 147.475 142.46 147.39C159.375 131.835 170 109.65 170 85ZM126.99 127.245C103.955 111.775 66.215 111.775 43.01 127.245C39.27 129.71 36.21 132.6 33.66 135.745C20.74 122.655 12.75 104.72 12.75 85C12.75 45.135 45.135 12.75 85 12.75C124.865 12.75 157.25 45.135 157.25 85C157.25 104.72 149.26 122.655 136.34 135.745C133.875 132.6 130.73 129.71 126.99 127.245Z" fill="#FF9625"/>
<path d="M85 41.9023C67.405 41.9023 53.125 56.1823 53.125 73.7774C53.125 91.0324 66.64 105.057 84.575 105.567H85.34H85.935H86.105C103.275 104.972 116.79 91.0324 116.875 73.7774C116.875 56.1823 102.595 41.9023 85 41.9023Z" fill="#FF9625"/>
</svg>
