<svg width="504" height="349" viewBox="0 0 504 349" fill="none" xmlns="http://www.w3.org/2000/svg">
<path fill-rule="evenodd" clip-rule="evenodd" d="M129.372 10.2214L0 139.593L129.372 268.965C143.001 282.593 165.097 282.593 178.725 268.965C192.354 255.337 192.354 233.24 178.725 219.611L133.606 174.492H380.888C409.798 174.492 433.236 197.928 433.236 226.839C433.236 255.749 409.798 279.187 380.888 279.187H328.541C309.267 279.187 293.642 294.811 293.642 314.085C293.642 333.36 309.267 348.984 328.541 348.984H380.888C448.347 348.984 503.032 294.298 503.032 226.839C503.032 159.381 448.347 104.695 380.888 104.695H133.606L178.725 59.5753C192.354 45.9465 192.354 23.8502 178.725 10.2214C165.097 -3.40713 143.001 -3.40713 129.372 10.2214Z" fill="white"/>
</svg>
