<svg width="179" height="211" viewBox="0 0 179 211" fill="none" xmlns="http://www.w3.org/2000/svg">
<path d="M134.843 210.212H43.6059C30.3889 210.212 19.5909 199.855 18.8843 186.815L18.8818 186.752L10.436 35.6893H168.01L159.602 186.78C158.883 199.87 148.093 210.212 134.888 210.212H134.841H134.844L134.843 210.212ZM25.2535 49.7039L32.8771 185.995C33.1735 191.689 37.8614 196.195 43.6022 196.197H134.834C140.565 196.195 145.248 191.705 145.558 186.051L145.559 186.023L153.192 49.7034L25.2535 49.7039ZM178.446 49.7039H0V35.6895H178.446V49.7039ZM71.3784 0.000205563H107.067C120.786 0.0162177 131.903 11.1328 131.919 24.8503V49.7034H46.5267V24.8517C46.5427 11.133 57.6592 0.0160122 71.3768 0H71.3782L71.3784 0.000205563ZM117.905 35.6895V24.8519C117.9 18.8687 113.051 14.0197 107.068 14.0144H71.3784C65.3952 14.0195 60.5462 18.8685 60.5408 24.8513V35.6893L117.905 35.6895ZM96.2299 176.484H82.2158V69.4167H96.2299V176.484ZM131.919 176.484H117.905V69.4167H131.919V176.484ZM60.5408 176.484H46.5267V69.4167H60.5408V176.484Z" fill="black"/>
</svg>
